<svg width="20" height="200" viewBox="0 0 20 200" fill="none" xmlns="http://www.w3.org/2000/svg">
    <path fill-rule="evenodd" clip-rule="evenodd"
        d="M16.9556 60H3.04444C1.36304 60 0 61.363 0 63.0444V76.9556C0 78.637 1.36304 80 3.04444 80H16.9556C17.763 80 18.5374 79.6792 19.1083 79.1083C19.6792 78.5374 20 77.763 20 76.9556V63.0444C20 62.237 19.6792 61.4626 19.1083 60.8917C18.5374 60.3208 17.763 60 16.9556 60ZM4 69H2V67H4V69ZM4 71H2V73H4V71ZM18 69H16V67H18V69ZM18 71H16V73H18V71ZM18 62.74V64H16V62H17.26C17.4563 62 17.6445 62.078 17.7833 62.2167C17.922 62.3555 18 62.5437 18 62.74ZM4 62H2.74C2.54374 62 2.35552 62.078 2.21674 62.2167C2.07796 62.3555 2 62.5437 2 62.74V64H4V62ZM2 77.26V76H4V78H2.74C2.54374 78 2.35552 77.922 2.21674 77.7833C2.07796 77.6445 2 77.4563 2 77.26ZM17.26 78C17.6687 78 18 77.6687 18 77.26V76H16V78H17.26Z"
        fill="#5A698F" />
</svg>